<svg width="18" height="18" viewBox="0 0 18 18" fill="none" xmlns="http://www.w3.org/2000/svg">
<path d="M9 17.0625C4.5525 17.0625 0.9375 13.4475 0.9375 9C0.9375 4.5525 4.5525 0.9375 9 0.9375C13.4475 0.9375 17.0625 4.5525 17.0625 9C17.0625 13.4475 13.4475 17.0625 9 17.0625ZM9 2.0625C5.175 2.0625 2.0625 5.175 2.0625 9C2.0625 12.825 5.175 15.9375 9 15.9375C12.825 15.9375 15.9375 12.825 15.9375 9C15.9375 5.175 12.825 2.0625 9 2.0625Z" fill="#00BA77"/>
<path d="M7.93605 11.6852C7.78605 11.6852 7.64355 11.6252 7.53855 11.5202L5.41605 9.3977C5.19855 9.1802 5.19855 8.8202 5.41605 8.6027C5.63355 8.3852 5.99355 8.3852 6.21105 8.6027L7.93605 10.3277L11.7911 6.4727C12.0086 6.2552 12.3686 6.2552 12.5861 6.4727C12.8036 6.6902 12.8036 7.05019 12.5861 7.26769L8.33355 11.5202C8.22855 11.6252 8.08605 11.6852 7.93605 11.6852Z" fill="#00BA77"/>
</svg>
